<svg id="Layer_1" data-name="Layer 1" xmlns="http://www.w3.org/2000/svg" viewBox="0 0 24 24"><defs><style>.cls-1{fill:#1aa80f;}</style></defs><title>Check</title><path class="cls-1" d="M22.29,1.57A.88.88,0,0,0,21,1.71L9.71,16,6,12.26a.89.89,0,0,0-1.25,1.25l4.43,4.43a.88.88,0,0,0,.67.26.89.89,0,0,0,.64-.33l12-15.05A.89.89,0,0,0,22.29,1.57Z"/><path class="cls-1" d="M17.8,11.13a.89.89,0,0,0-.67,1.06,7.08,7.08,0,1,1-3.76-4.77.89.89,0,1,0,.79-1.59,8.77,8.77,0,0,0-3.94-.92,8.86,8.86,0,1,0,8.63,6.88A.88.88,0,0,0,17.8,11.13Z"/></svg>